<svg width="24" height="25" viewBox="0 0 24 25" fill="none" xmlns="http://www.w3.org/2000/svg">
<path fill-rule="evenodd" clip-rule="evenodd" d="M12 24.5C18.6274 24.5 24 19.1274 24 12.5C24 5.87258 18.6274 0.5 12 0.5C5.37258 0.5 0 5.87258 0 12.5C0 19.1274 5.37258 24.5 12 24.5ZM17.0869 8.92711C17.4969 8.51705 17.4969 7.85223 17.0869 7.44218C16.6768 7.03213 16.012 7.03213 15.6019 7.44218L12.1447 10.8995L8.68736 7.44219C8.27731 7.03214 7.61249 7.03214 7.20244 7.44219C6.79239 7.85224 6.79239 8.51706 7.20244 8.92711L10.6597 12.3844L7.20219 15.8419C6.79214 16.252 6.79214 16.9168 7.20219 17.3269C7.61224 17.7369 8.27707 17.7369 8.68712 17.3269L12.1447 13.8693L15.6022 17.3269C16.0122 17.7369 16.6771 17.7369 17.0871 17.3269C17.4972 16.9168 17.4972 16.252 17.0871 15.8419L13.6296 12.3844L17.0869 8.92711Z" fill="#E8E8E8"/>
</svg>
